<?xml version="1.0" standalone="no"?>
<!DOCTYPE svg PUBLIC "-//W3C//DTD SVG 20010904//EN"
 "http://www.w3.org/TR/2001/REC-SVG-20010904/DTD/svg10.dtd">
<svg version="1.0" xmlns="http://www.w3.org/2000/svg"
 width="1081.000000pt" height="1081.000000pt" viewBox="0 0 1081.000000 1081.000000"
 preserveAspectRatio="xMidYMid meet">
<metadata>
Created by potrace 1.14, written by Peter Selinger 2001-2017
</metadata>
<g transform="translate(0.000000,1081.000000) scale(0.100000,-0.100000)"
fill="#000000" stroke="none">
<path d="M4797 10803 c-1 0 -81 -4 -177 -7 -96 -4 -193 -8 -215 -11 -22 -2
-70 -6 -107 -9 -36 -3 -81 -7 -100 -10 -18 -3 -58 -8 -88 -11 -30 -3 -82 -10
-115 -15 -33 -5 -78 -12 -100 -15 -23 -3 -52 -8 -65 -10 -14 -3 -54 -10 -90
-16 -101 -16 -353 -75 -490 -114 -69 -19 -135 -37 -146 -40 -48 -11 -298 -101
-439 -157 -802 -323 -1477 -843 -1847 -1424 -35 -55 -69 -109 -76 -119 -35
-57 -144 -293 -176 -382 -71 -204 -89 -296 -90 -468 -1 -139 5 -186 38 -310
50 -184 145 -348 324 -555 373 -433 826 -716 1332 -836 136 -32 136 -32 195
-40 28 -3 52 -7 55 -9 14 -8 225 -19 370 -19 201 0 346 14 510 49 41 9 84 18
95 20 100 20 152 42 186 76 74 74 62 148 -40 250 -72 72 -242 189 -305 209
-27 9 -59 10 -105 4 -36 -4 -127 -8 -201 -8 -133 -1 -136 -1 -190 30 -63 36
-115 97 -130 155 -23 84 -15 274 19 434 18 90 72 258 118 370 153 376 403 744
723 1066 488 491 1072 802 1705 908 33 6 74 13 90 16 29 5 103 12 209 21 68 5
325 5 406 -1 235 -16 542 -72 755 -137 39 -12 72 -22 75 -23 65 -14 244 -85
391 -156 287 -139 561 -364 750 -614 206 -273 364 -648 425 -1005 2 -14 7 -41
10 -60 3 -19 8 -51 10 -70 2 -19 6 -46 9 -60 25 -136 25 -710 0 -842 -2 -9 -6
-43 -10 -75 -3 -32 -7 -69 -10 -83 -4 -24 -12 -74 -20 -135 -3 -16 -7 -41 -10
-55 -3 -14 -8 -41 -11 -60 -11 -58 -12 -61 -34 -160 -12 -52 -23 -102 -25
-110 -3 -15 -39 -151 -55 -205 -4 -16 -20 -68 -34 -115 -15 -47 -28 -92 -31
-100 -40 -155 -311 -814 -397 -965 -6 -11 -35 -66 -64 -122 -301 -582 -735
-1200 -1189 -1693 -93 -101 -429 -434 -510 -505 -44 -39 -100 -88 -125 -111
-84 -76 -305 -251 -439 -349 -647 -472 -1332 -804 -2026 -980 -185 -48 -209
-47 -246 5 -17 24 -22 48 -36 170 -14 122 -5 380 17 489 5 25 12 64 15 86 14
99 127 498 154 540 3 6 6 12 7 15 1 7 14 41 29 75 7 17 25 59 40 95 127 303
390 743 666 1110 108 143 139 177 139 152 0 -4 22 -38 50 -76 211 -289 494
-517 740 -594 81 -25 98 -25 116 4 12 18 13 33 5 81 -6 32 -13 74 -16 93 -3
19 -10 60 -15 90 -12 71 -17 111 -26 185 -3 33 -8 67 -9 76 -2 9 -6 52 -10 95
-4 43 -8 89 -10 101 -23 145 -23 791 -1 923 3 14 7 56 11 94 6 66 13 111 35
229 16 89 21 111 26 129 3 9 6 25 8 35 44 222 174 532 305 726 64 96 71 108
71 141 0 63 -163 170 -325 211 -91 24 -247 24 -335 1 -106 -28 -244 -106 -375
-213 -5 -4 -41 -33 -80 -63 -38 -30 -72 -57 -75 -60 -3 -3 -25 -21 -50 -40
-54 -42 -78 -62 -94 -75 -13 -12 -190 -150 -316 -246 -276 -211 -599 -426
-890 -591 -64 -36 -290 -150 -385 -193 -345 -158 -774 -288 -1085 -330 -25 -3
-65 -8 -90 -12 -25 -3 -52 -7 -60 -8 -93 -17 -409 -22 -610 -11 -100 6 -129 5
-144 -7 -29 -22 -14 -57 46 -103 230 -176 662 -363 963 -418 380 -70 672 -77
1010 -26 33 5 78 12 100 15 22 4 96 20 165 36 69 16 133 32 143 34 10 2 28 7
39 10 11 4 -21 -41 -80 -112 -515 -613 -897 -1266 -1028 -1758 -28 -105 -29
-109 -50 -229 -2 -10 -6 -50 -10 -89 -27 -284 30 -523 172 -723 198 -280 484
-537 794 -713 58 -33 298 -151 307 -151 3 0 44 -15 92 -34 80 -32 295 -99 351
-110 14 -2 54 -11 90 -20 104 -24 266 -50 405 -63 152 -15 595 -6 626 12 3 2
28 7 55 10 27 4 87 16 134 27 47 11 92 21 100 23 8 2 69 19 135 39 305 89 667
247 1035 451 121 68 315 185 445 271 106 69 388 264 395 273 3 4 30 24 60 46
144 103 500 394 684 560 262 235 578 551 781 779 39 43 77 86 85 95 9 9 43 47
75 86 33 38 66 76 73 83 35 38 252 315 350 447 61 83 119 161 130 175 41 56
193 283 264 395 180 286 363 628 493 920 60 135 191 473 200 514 2 9 11 36 20
61 22 62 87 297 100 363 2 9 11 44 19 76 8 33 18 81 22 108 3 26 8 51 10 54 3
5 20 106 30 179 3 19 7 49 9 65 28 199 40 385 40 625 0 181 -9 392 -19 446 -2
11 -7 46 -10 79 -9 75 -14 107 -42 260 -66 365 -232 795 -433 1120 -218 355
-523 687 -868 947 -357 269 -720 469 -1188 653 -211 83 -547 194 -695 231 -8
2 -76 19 -150 38 -158 41 -134 35 -375 86 -171 36 -521 98 -650 115 -27 3 -66
8 -85 11 -83 11 -98 13 -160 19 -36 4 -76 9 -90 11 -14 2 -59 7 -100 9 -41 3
-93 8 -114 10 -67 8 -563 24 -569 18z"/>
</g>
</svg>
