<svg id="Layer_1" data-name="Layer 1" xmlns="http://www.w3.org/2000/svg" viewBox="0 0 989.7 1080"><path d="M528.79,5.42C253.58-29.26,38.19,108,4.77,258c-7.26,32.57,1.25,66.69,21.5,93.42,117.18,154.75,282.66,94.92,282.66,94.92,19.94-13.34,3.89-29.71-25.87-47.24a21.84,21.84,0,0,0-15.1-2.55,109.7,109.7,0,0,1-28.85,1.28,26.43,26.43,0,0,1-24.25-23.44C204.14,272.68,368.74,28.3,631.32,115.07c344.62,113.87,73.65,768-359.46,865.36a9.71,9.71,0,0,1-11.62-7.23c-6.14-28.83-13.61-124.57,103.66-272.08,0,0,32.35,54.88,84.64,70.2,5.42,1.59,9.07-1.78,8-7.25-7.91-40.29-33.18-197.76,34.27-287.68A9.88,9.88,0,0,0,489,462.58c-12.26-9.34-38.48-23.85-71.58-10.75-44.8,17.73-198.29,198.76-406.69,180.51-12.28-1.08-14.31,4.25-4.32,11.4,34.6,24.78,120,70.42,244.7,33.79,0,0-175.53,190.9-102.36,292.23,72.76,100.76,191.5,110.5,234.63,110.23,192.3-1.2,542-298.71,597.26-583C1010.63,342.54,991,63.67,528.79,5.42Z"/></svg>