<svg id="Layer_1" data-name="Layer 1" xmlns="http://www.w3.org/2000/svg" viewBox="0 0 322.62 322.62"><defs><style>.cls-1{fill:none;stroke:#000;stroke-miterlimit:10;stroke-width:15px;}</style></defs><circle class="cls-1" cx="161.31" cy="161.31" r="119.28"/><circle class="cls-1" cx="161.31" cy="161.31" r="153.81"/><path class="cls-1" d="M167.26,223.07a23.13,23.13,0,0,0,23.07,23.06h19.34a23.13,23.13,0,0,0,23.07-23.06h0A23.14,23.14,0,0,0,209.67,200H190.33a23.14,23.14,0,0,1-23.07-23.07h0a23.13,23.13,0,0,1,23.07-23.06h19.34a23.13,23.13,0,0,1,23.07,23.06" transform="translate(-38.69 -38.69)"/><line class="cls-1" x1="161.31" y1="115.18" x2="161.31" y2="93.85"/><line class="cls-1" x1="161.31" y1="228.77" x2="161.31" y2="207.45"/></svg>