<svg id="Layer_1" data-name="Layer 1" xmlns="http://www.w3.org/2000/svg" viewBox="0 0 320 320"><defs><style>.cls-1,.cls-2{fill:none;stroke:#000;}.cls-1{stroke-miterlimit:10;stroke-width:15px;}.cls-2{stroke-linejoin:round;stroke-width:10px;}</style></defs><g id="font_design-_typography" data-name="font design- typography"><polyline class="cls-1" points="105 265 65 265 140 55 180 55 255 265 210 265 190 210 130 210"/><line class="cls-1" x1="100" y1="295" x2="190" y2="30"/><line class="cls-1" x1="160.83" y1="115.88" x2="180.9" y2="175.03"/><line class="cls-2" x1="255" y1="320" x2="255" y2="310"/><line class="cls-2" x1="255" y1="300" x2="255" y2="290"/><line class="cls-2" x1="255" y1="190" x2="255" y2="180"/><line class="cls-2" x1="255" y1="210" x2="255" y2="200"/><line class="cls-2" x1="255" y1="170" x2="255" y2="160"/><line class="cls-2" x1="255" y1="150" x2="255" y2="140"/><line class="cls-2" x1="255" y1="130" x2="255" y2="120"/><line class="cls-2" x1="255" y1="90" x2="255" y2="80"/><line class="cls-2" x1="255" y1="110" x2="255" y2="100"/><line class="cls-2" x1="255" y1="30" x2="255" y2="20"/><line class="cls-2" x1="255" y1="10" x2="255"/><line class="cls-2" x1="65" y1="320" x2="65" y2="310"/><line class="cls-2" x1="65" y1="300" x2="65" y2="290"/><line class="cls-2" x1="65" y1="190" x2="65" y2="180"/><line class="cls-2" x1="65" y1="210" x2="65" y2="200"/><line class="cls-2" x1="65" y1="170" x2="65" y2="160"/><line class="cls-2" x1="65" y1="150" x2="65" y2="140"/><line class="cls-2" x1="65" y1="130" x2="65" y2="120"/><line class="cls-2" x1="65" y1="90" x2="65" y2="80"/><line class="cls-2" x1="65" y1="110" x2="65" y2="100"/><line class="cls-2" x1="65" y1="30" x2="65" y2="20"/><line class="cls-2" x1="65" y1="10" x2="65"/><line class="cls-2" x1="320" y1="55" x2="310" y2="55"/><line class="cls-2" x1="280" y1="55" x2="270" y2="55"/><line class="cls-2" x1="300" y1="55" x2="290" y2="55"/><line class="cls-2" x1="260" y1="55" x2="250" y2="55"/><line class="cls-2" x1="240" y1="55" x2="230" y2="55"/><line class="cls-2" x1="220" y1="55" x2="210" y2="55"/><line class="cls-2" x1="90" y1="55" x2="80" y2="55"/><line class="cls-2" x1="110" y1="55" x2="100" y2="55"/><line class="cls-2" x1="70" y1="55" x2="60" y2="55"/><line class="cls-2" x1="50" y1="55" x2="40" y2="55"/><line class="cls-2" x1="30" y1="55" x2="20" y2="55"/><line class="cls-2" x1="10" y1="55" y2="55"/><line class="cls-2" x1="310" y1="265" x2="300" y2="265"/><line class="cls-2" x1="290" y1="265" x2="280" y2="265"/><line class="cls-2" x1="185" y1="265" x2="175" y2="265"/><line class="cls-2" x1="165" y1="265" x2="155" y2="265"/><line class="cls-2" x1="145" y1="265" x2="135" y2="265"/><line class="cls-2" x1="40" y1="265" x2="30" y2="265"/><line class="cls-2" x1="20" y1="265" x2="10" y2="265"/></g></svg>