<svg id="Layer_1" data-name="Layer 1" xmlns="http://www.w3.org/2000/svg" viewBox="0 0 325 337.5"><defs><style>.cls-1{fill:none;stroke:#000;stroke-miterlimit:10;stroke-width:15px;}</style></defs><g id="vector_illustration-digital_art-pen" data-name="vector illustration-digital art-pen"><rect class="cls-1" x="147.5" y="7.5" width="30" height="30"/><rect class="cls-1" x="7.5" y="167.5" width="30" height="30"/><circle class="cls-1" cx="22.5" cy="22.5" r="15"/><circle class="cls-1" cx="302.5" cy="22.5" r="15"/><line class="cls-1" x1="37.5" y1="22.5" x2="147.5" y2="22.5"/><line class="cls-1" x1="177.5" y1="22.5" x2="287.5" y2="22.5"/><path class="cls-1" d="M215.14,55.89c70.27,7.49,125,67.75,125,140a139.66,139.66,0,0,1-47.39,105" transform="translate(-37.64 -33.39)"/><path class="cls-1" d="M60.23,200.89c-.06-1.66-.09-3.32-.09-5,0-72.25,54.74-132.51,125-140" transform="translate(-37.64 -33.39)"/><circle class="cls-1" cx="162.5" cy="182.5" r="15"/><path class="cls-1" d="M240.14,300.89c0-30.72,18.64-52.11,30.47-62.6a15,15,0,0,0,3.09-18.67L204.48,98.49a5,5,0,0,0-8.68,0L126.58,219.62a15,15,0,0,0,3.09,18.67c8.3,7.35,19.94,20.07,26.16,37.6" transform="translate(-37.64 -33.39)"/><path class="cls-1" d="M205.14,335.89h35a10,10,0,0,0,10-10v-15a10,10,0,0,0-10-10h-80a10,10,0,0,0-10,10v15a10,10,0,0,0,10,10h50" transform="translate(-37.64 -33.39)"/><line class="cls-1" x1="122.5" y1="337.5" x2="122.5" y2="302.5"/><line class="cls-1" x1="202.5" y1="337.5" x2="202.5" y2="302.5"/><line class="cls-1" x1="162.5" y1="62.5" x2="162.5" y2="167.5"/></g></svg>