<svg id="Layer_1" data-name="Layer 1" xmlns="http://www.w3.org/2000/svg" viewBox="0 0 325 325"><defs><style>.cls-1,.cls-2,.cls-3{fill:none;stroke:#000;stroke-width:15px;}.cls-1{stroke-miterlimit:10;}.cls-2{stroke-linecap:round;}.cls-2,.cls-3{stroke-linejoin:round;}</style></defs><path class="cls-1" d="M61.17,296.17v-125a15,15,0,0,1,15-15" transform="translate(-38.67 -38.67)"/><path class="cls-1" d="M341.17,296.17v-125a15,15,0,0,0-15-15" transform="translate(-38.67 -38.67)"/><path class="cls-1" d="M321.17,356.17h-240a35,35,0,0,1-35-35h125v10h60v-10h125A35,35,0,0,1,321.17,356.17Z" transform="translate(-38.67 -38.67)"/><polyline class="cls-2" points="237.5 162.5 262.5 177.5 162.5 237.5 62.5 177.5 87.5 162.5"/><polyline class="cls-2" points="62.5 62.5 162.5 122.5 262.5 62.5 162.5 7.5 62.5 62.5"/><line class="cls-3" x1="262.5" y1="62.5" x2="262.5" y2="177.5"/><polygon class="cls-2" points="162.5 62.5 107.5 92.5 107.5 152.5 162.5 187.5 217.5 152.5 217.5 92.5 162.5 62.5"/><line class="cls-2" x1="162.5" y1="122.5" x2="162.5" y2="237.5"/><line class="cls-2" x1="162.5" y1="7.5" x2="162.5" y2="32.5"/><line class="cls-2" x1="62.5" y1="62.5" x2="62.5" y2="177.5"/></svg>